{
	"asset":{
		"generator":"Khronos glTF Blender I/O v3.5.30",
		"version":"2.0"
	},
	"scene":0,
	"scenes":[
		{
			"name":"Scene",
			"nodes":[
				0,
				1,
				2,
				3
			]
		}
	],
	"nodes":[
		{
			"mesh":0,
			"name":"Plane",
			"scale":[
				10,
				10,
				10
			],
			"translation":[
				-0.09152698516845703,
				-3.5700550079345703,
				1.9219532012939453
			]
		},
		{
			"mesh":1,
			"name":"Cube",
			"translation":[
				0.1516256332397461,
				-0.2615985870361328,
				1.9646968841552734
			]
		},
		{
			"mesh":2,
			"name":"plank_h",
			"translation":[
				0.37281227111816406,
				1.384974479675293,
				1.9623584747314453
			]
		},
		{
			"mesh":3,
			"name":"plank_v",
			"translation":[
				-3.3190855979919434,
				-0.11458873748779297,
				1.8173751831054688
			]
		}
	],
	"materials":[
		{
			"doubleSided":true,
			"name":"Material",
			"pbrMetallicRoughness":{}
		}
	],
	"meshes":[
		{
			"name":"Plane",
			"primitives":[
				{
					"attributes":{
						"POSITION":0,
						"NORMAL":1
					},
					"indices":2
				}
			]
		},
		{
			"name":"Cube.003",
			"primitives":[
				{
					"attributes":{
						"POSITION":3,
						"TEXCOORD_0":4,
						"NORMAL":5
					},
					"indices":6,
					"material":0
				}
			]
		},
		{
			"name":"Cube.002",
			"primitives":[
				{
					"attributes":{
						"POSITION":7,
						"TEXCOORD_0":8,
						"NORMAL":9
					},
					"indices":10,
					"material":0
				}
			]
		},
		{
			"name":"Cube.001",
			"primitives":[
				{
					"attributes":{
						"POSITION":11,
						"TEXCOORD_0":12,
						"NORMAL":13
					},
					"indices":14,
					"material":0
				}
			]
		}
	],
	"accessors":[
		{
			"bufferView":0,
			"componentType":5126,
			"count":4,
			"max":[
				1,
				0,
				1
			],
			"min":[
				-1,
				0,
				-1
			],
			"type":"VEC3"
		},
		{
			"bufferView":1,
			"componentType":5126,
			"count":4,
			"type":"VEC3"
		},
		{
			"bufferView":2,
			"componentType":5123,
			"count":6,
			"type":"SCALAR"
		},
		{
			"bufferView":3,
			"componentType":5126,
			"count":623,
			"max":[
				4.4262285232543945,
				1.3803120851516724,
				0.08154646307229996
			],
			"min":[
				-3.830173969268799,
				-1.578449010848999,
				-0.07563140243291855
			],
			"type":"VEC3"
		},
		{
			"bufferView":4,
			"componentType":5126,
			"count":623,
			"type":"VEC2"
		},
		{
			"bufferView":5,
			"componentType":5126,
			"count":623,
			"type":"VEC3"
		},
		{
			"bufferView":6,
			"componentType":5123,
			"count":1236,
			"type":"SCALAR"
		},
		{
			"bufferView":7,
			"componentType":5126,
			"count":3448,
			"max":[
				4.328210353851318,
				0.2666124403476715,
				0.07440011203289032
			],
			"min":[
				-4.3114213943481445,
				-3.758878707885742,
				-0.07440058887004852
			],
			"type":"VEC3"
		},
		{
			"bufferView":8,
			"componentType":5126,
			"count":3448,
			"type":"VEC2"
		},
		{
			"bufferView":9,
			"componentType":5126,
			"count":3448,
			"type":"VEC3"
		},
		{
			"bufferView":10,
			"componentType":5123,
			"count":5352,
			"type":"SCALAR"
		},
		{
			"bufferView":11,
			"componentType":5126,
			"count":11268,
			"max":[
				7.873658657073975,
				3.679861307144165,
				0.07685298472642899
			],
			"min":[
				-0.3005213439464569,
				-3.4157023429870605,
				-0.07479766011238098
			],
			"type":"VEC3"
		},
		{
			"bufferView":12,
			"componentType":5126,
			"count":11268,
			"type":"VEC2"
		},
		{
			"bufferView":13,
			"componentType":5126,
			"count":11268,
			"type":"VEC3"
		},
		{
			"bufferView":14,
			"componentType":5123,
			"count":56472,
			"type":"SCALAR"
		}
	],
	"bufferViews":[
		{
			"buffer":0,
			"byteLength":48,
			"byteOffset":0,
			"target":34962
		},
		{
			"buffer":0,
			"byteLength":48,
			"byteOffset":48,
			"target":34962
		},
		{
			"buffer":0,
			"byteLength":12,
			"byteOffset":96,
			"target":34963
		},
		{
			"buffer":0,
			"byteLength":7476,
			"byteOffset":108,
			"target":34962
		},
		{
			"buffer":0,
			"byteLength":4984,
			"byteOffset":7584,
			"target":34962
		},
		{
			"buffer":0,
			"byteLength":7476,
			"byteOffset":12568,
			"target":34962
		},
		{
			"buffer":0,
			"byteLength":2472,
			"byteOffset":20044,
			"target":34963
		},
		{
			"buffer":0,
			"byteLength":41376,
			"byteOffset":22516,
			"target":34962
		},
		{
			"buffer":0,
			"byteLength":27584,
			"byteOffset":63892,
			"target":34962
		},
		{
			"buffer":0,
			"byteLength":41376,
			"byteOffset":91476,
			"target":34962
		},
		{
			"buffer":0,
			"byteLength":10704,
			"byteOffset":132852,
			"target":34963
		},
		{
			"buffer":0,
			"byteLength":135216,
			"byteOffset":143556,
			"target":34962
		},
		{
			"buffer":0,
			"byteLength":90144,
			"byteOffset":278772,
			"target":34962
		},
		{
			"buffer":0,
			"byteLength":135216,
			"byteOffset":368916,
			"target":34962
		},
		{
			"buffer":0,
			"byteLength":112944,
			"byteOffset":504132,
			"target":34963
		}
	],
	"buffers":[
		{
			"byteLength":617076,
			"uri":"data:application/octet-stream;base64,"
		}
	]
}
